<svg xmlns="http://www.w3.org/2000/svg" width="105" height="18" viewBox="0 0 105 18"><path fill="#1C4598" fill-rule="evenodd" d="M88.922 10.934h6.569l-3.285-6.331-3.284 6.331zm9.95 6.844l-1.563-3.046H87.086l-1.545 3.045h-5.837L89.07.29h6.568L105 17.778h-6.128zM73.445.291h5.284v17.487h-5.284V.291zm-9.152 0h6.974l-9.413 8.18 10.617 9.307h-7.463l-9.64-9.12L64.293.291zM50.085 17.778h5.283V.291h-5.283v17.487zm-9.04-4.209c1.156 0 1.563-.069 1.84-.325.258-.24.372-.548.372-1.576V6.332c0-1.028-.114-1.334-.372-1.574-.277-.258-.684-.326-1.84-.326h-8.208c-1.155 0-1.561.068-1.837.326-.26.24-.374.546-.374 1.574v5.336c0 1.028.114 1.337.374 1.576.276.256.682.325 1.837.325h8.209zm6.976-1.198c0 2.43-.423 3.269-1.123 4.072C45.826 17.64 44.265 18 41.258 18h-8.632c-3.007 0-4.57-.36-5.641-1.557-.7-.803-1.122-1.641-1.122-4.072V5.629c0-2.43.423-3.266 1.122-4.071C28.057.36 29.619 0 32.626 0h8.633c3.006 0 4.567.36 5.64 1.558.699.805 1.122 1.642 1.122 4.071v6.742zM5.056 17.778H0V.291h8.744l10.031 13.055V.291h5.056v17.487h-8.567L5.056 4.5v13.278z"/></svg>